<svg xmlns="http://www.w3.org/2000/svg" xmlns:xlink="http://www.w3.org/1999/xlink" width="500" zoomAndPan="magnify" viewBox="0 0 375 149.999998" height="200" preserveAspectRatio="xMidYMid meet" version="1.0"><defs><g/><clipPath id="46e3a630d7"><path d="M 0 1.484375 L 82 1.484375 L 82 60 L 0 60 Z M 0 1.484375 " clip-rule="nonzero"/></clipPath><clipPath id="9c824a959e"><path d="M 112 51 L 153.75 51 L 153.75 57 L 112 57 Z M 112 51 " clip-rule="nonzero"/></clipPath><clipPath id="3a18dd58bf"><path d="M 56 84 L 101 84 L 101 147.734375 L 56 147.734375 Z M 56 84 " clip-rule="nonzero"/></clipPath><clipPath id="0b5dc210e4"><path d="M 56 84 L 108 84 L 108 147.734375 L 56 147.734375 Z M 56 84 " clip-rule="nonzero"/></clipPath><clipPath id="f2ac4476c8"><path d="M 168.140625 51.105469 L 175.640625 51.105469 L 175.640625 58.605469 L 168.140625 58.605469 Z M 168.140625 51.105469 " clip-rule="nonzero"/></clipPath></defs><g clip-path="url(#46e3a630d7)"><path fill="#000aff" d="M 0 1.519531 L 29.851562 52.332031 L 81.476562 59.945312 Z M 0 1.519531 " fill-opacity="1" fill-rule="nonzero"/><path fill="#0057ff" d="M 0 1.519531 L 16.832031 5.546875 L 81.476562 59.945312 Z M 0 1.519531 " fill-opacity="1" fill-rule="nonzero"/></g><path fill="#0057ff" d="M 81.476562 59.945312 L 12.34375 48.976562 L 54.316406 83.675781 Z M 81.476562 59.945312 " fill-opacity="1" fill-rule="nonzero"/><path fill="#85ccff" d="M 81.476562 59.945312 L 80.914062 94.304688 L 54.316406 83.675781 Z M 81.476562 59.945312 " fill-opacity="1" fill-rule="nonzero"/><path fill="#0057ff" d="M 77.210938 56.808594 L 95.839844 46.511719 L 101.675781 54.796875 Z M 77.210938 56.808594 " fill-opacity="1" fill-rule="nonzero"/><path fill="#fafafa" d="M 95.839844 46.511719 L 112.5625 51.214844 L 101.339844 54.796875 Z M 95.839844 46.511719 " fill-opacity="1" fill-rule="nonzero"/><path fill="#000aff" d="M 77.210938 56.808594 L 101.453125 73.488281 L 101.339844 54.796875 Z M 77.210938 56.808594 " fill-opacity="1" fill-rule="nonzero"/><g clip-path="url(#9c824a959e)"><path fill="#000aff" d="M 112.785156 51.101562 L 153.75 51.664062 L 115.367188 56.140625 Z M 112.785156 51.101562 " fill-opacity="1" fill-rule="nonzero"/></g><path fill="#fafafa" d="M 112.785156 51.101562 L 101.453125 73.488281 L 115.367188 56.140625 Z M 112.785156 51.101562 " fill-opacity="1" fill-rule="nonzero"/><path fill="#85ccff" d="M 101.339844 54.796875 L 112.785156 51.101562 L 101.453125 73.488281 Z M 101.339844 54.796875 " fill-opacity="1" fill-rule="nonzero"/><path fill="#000aff" d="M 81.476562 60.390625 L 80.914062 105.835938 L 89.332031 99.792969 Z M 81.476562 60.390625 " fill-opacity="1" fill-rule="nonzero"/><path fill="#0057ff" d="M 81.476562 59.945312 L 101.453125 73.488281 L 89.332031 99.792969 Z M 81.476562 59.945312 " fill-opacity="1" fill-rule="nonzero"/><path fill="#0057ff" d="M 56.5625 84.570312 L 80.800781 137.402344 L 71.375 140.308594 Z M 56.5625 84.570312 " fill-opacity="1" fill-rule="nonzero"/><path fill="#000aff" d="M 56.5625 84.570312 L 61.949219 120.386719 L 71.375 140.308594 Z M 56.5625 84.570312 " fill-opacity="1" fill-rule="nonzero"/><g clip-path="url(#3a18dd58bf)"><path fill="#000aff" d="M 100.332031 147.695312 L 56.5625 84.570312 L 80.800781 137.402344 Z M 100.332031 147.695312 " fill-opacity="1" fill-rule="nonzero"/></g><path fill="#0057ff" d="M 56.5625 84.570312 L 81.140625 94.53125 L 81.140625 105.613281 Z M 56.5625 84.570312 " fill-opacity="1" fill-rule="nonzero"/><g clip-path="url(#0b5dc210e4)"><path fill="#85ccff" d="M 56.5625 84.570312 L 100.332031 147.695312 L 107.511719 127.328125 Z M 56.5625 84.570312 " fill-opacity="1" fill-rule="nonzero"/></g><path fill="#0057ff" d="M 115.816406 127.328125 L 107.511719 127.328125 L 81.140625 105.613281 Z M 115.816406 127.328125 " fill-opacity="1" fill-rule="nonzero"/><path fill="#fafafa" d="M 89.332031 99.792969 L 115.816406 127.328125 L 81.140625 105.613281 Z M 89.332031 99.792969 " fill-opacity="1" fill-rule="nonzero"/><path fill="#100f0d" d="M 106.578125 57.515625 C 106.578125 58.222656 106 58.796875 105.292969 58.796875 C 104.585938 58.796875 104.007812 58.222656 104.007812 57.515625 C 104.007812 56.808594 104.585938 56.234375 105.292969 56.234375 C 106 56.234375 106.578125 56.808594 106.578125 57.515625 " fill-opacity="1" fill-rule="nonzero"/><g fill="#fafafa" fill-opacity="1"><g transform="translate(132.202972, 92.572143)"><g><path d="M 5.796875 0 C 5.234375 0 4.757812 -0.1875 4.375 -0.5625 C 4 -0.945312 3.8125 -1.421875 3.8125 -1.984375 L 3.8125 -27.796875 C 3.8125 -28.378906 4 -28.851562 4.375 -29.21875 C 4.757812 -29.59375 5.234375 -29.78125 5.796875 -29.78125 L 14.90625 -29.78125 C 16.613281 -29.78125 18.125 -29.441406 19.4375 -28.765625 C 20.757812 -28.085938 21.796875 -27.144531 22.546875 -25.9375 C 23.296875 -24.738281 23.671875 -23.375 23.671875 -21.84375 C 23.671875 -20.601562 23.332031 -19.484375 22.65625 -18.484375 C 21.988281 -17.492188 21.070312 -16.695312 19.90625 -16.09375 C 21.632812 -15.6875 22.992188 -14.867188 23.984375 -13.640625 C 24.972656 -12.421875 25.46875 -10.875 25.46875 -9 C 25.46875 -7.269531 25.050781 -5.71875 24.21875 -4.34375 C 23.394531 -2.96875 22.238281 -1.898438 20.75 -1.140625 C 19.269531 -0.378906 17.585938 0 15.703125 0 Z M 14.90625 -17.53125 C 16.40625 -17.53125 17.601562 -17.898438 18.5 -18.640625 C 19.40625 -19.378906 19.859375 -20.445312 19.859375 -21.84375 C 19.859375 -23.238281 19.40625 -24.296875 18.5 -25.015625 C 17.601562 -25.742188 16.40625 -26.109375 14.90625 -26.109375 L 7.78125 -26.109375 L 7.78125 -17.53125 Z M 15.703125 -3.65625 C 17.484375 -3.65625 18.921875 -4.117188 20.015625 -5.046875 C 21.109375 -5.972656 21.65625 -7.289062 21.65625 -9 C 21.65625 -10.570312 21.113281 -11.773438 20.03125 -12.609375 C 18.957031 -13.453125 17.515625 -13.875 15.703125 -13.875 L 7.78125 -13.875 L 7.78125 -3.65625 Z M 15.703125 -3.65625 "/></g></g></g><g fill="#fafafa" fill-opacity="1"><g transform="translate(167.009516, 92.572143)"><g><path d="M 5.796875 0 C 5.234375 0 4.757812 -0.1875 4.375 -0.5625 C 4 -0.945312 3.8125 -1.421875 3.8125 -1.984375 L 3.8125 -27.796875 C 3.8125 -28.378906 4 -28.851562 4.375 -29.21875 C 4.757812 -29.59375 5.234375 -29.78125 5.796875 -29.78125 C 6.378906 -29.78125 6.851562 -29.59375 7.21875 -29.21875 C 7.59375 -28.851562 7.78125 -28.378906 7.78125 -27.796875 L 7.78125 -1.984375 C 7.78125 -1.421875 7.59375 -0.945312 7.21875 -0.5625 C 6.851562 -0.1875 6.378906 0 5.796875 0 Z M 5.796875 0 "/></g></g></g><g fill="#fafafa" fill-opacity="1"><g transform="translate(185.844147, 92.572143)"><g><path d="M 13.265625 0.375 C 10.796875 0.375 8.550781 -0.179688 6.53125 -1.296875 C 4.507812 -2.410156 3.117188 -3.875 2.359375 -5.6875 C 2.234375 -5.988281 2.171875 -6.238281 2.171875 -6.4375 C 2.171875 -6.820312 2.3125 -7.160156 2.59375 -7.453125 C 2.875 -7.742188 3.253906 -7.941406 3.734375 -8.046875 C 3.804688 -8.066406 3.9375 -8.078125 4.125 -8.078125 C 4.53125 -8.078125 4.914062 -7.957031 5.28125 -7.71875 C 5.644531 -7.476562 5.914062 -7.15625 6.09375 -6.75 C 6.550781 -5.757812 7.453125 -4.921875 8.796875 -4.234375 C 10.148438 -3.546875 11.640625 -3.203125 13.265625 -3.203125 C 15.171875 -3.203125 16.785156 -3.640625 18.109375 -4.515625 C 19.429688 -5.390625 20.09375 -6.59375 20.09375 -8.125 C 20.09375 -9.570312 19.53125 -10.804688 18.40625 -11.828125 C 17.289062 -12.859375 15.59375 -13.488281 13.3125 -13.71875 C 10.15625 -14.03125 7.675781 -14.953125 5.875 -16.484375 C 4.070312 -18.023438 3.171875 -19.953125 3.171875 -22.265625 C 3.171875 -23.890625 3.632812 -25.289062 4.5625 -26.46875 C 5.488281 -27.65625 6.757812 -28.5625 8.375 -29.1875 C 9.988281 -29.8125 11.796875 -30.125 13.796875 -30.125 C 15.984375 -30.125 17.828125 -29.675781 19.328125 -28.78125 C 20.828125 -27.894531 22.097656 -26.625 23.140625 -24.96875 C 23.441406 -24.488281 23.59375 -24.03125 23.59375 -23.59375 C 23.59375 -23.039062 23.34375 -22.585938 22.84375 -22.234375 C 22.5625 -22.046875 22.226562 -21.953125 21.84375 -21.953125 C 21.46875 -21.953125 21.113281 -22.046875 20.78125 -22.234375 C 20.445312 -22.429688 20.191406 -22.695312 20.015625 -23.03125 C 19.328125 -24.175781 18.46875 -25.046875 17.4375 -25.640625 C 16.40625 -26.234375 15.101562 -26.53125 13.53125 -26.53125 C 11.601562 -26.53125 10.039062 -26.15625 8.84375 -25.40625 C 7.644531 -24.65625 7.046875 -23.570312 7.046875 -22.15625 C 7.046875 -20.832031 7.578125 -19.722656 8.640625 -18.828125 C 9.710938 -17.941406 11.625 -17.359375 14.375 -17.078125 C 17.425781 -16.773438 19.789062 -15.851562 21.46875 -14.3125 C 23.144531 -12.78125 23.984375 -10.753906 23.984375 -8.234375 C 23.984375 -6.398438 23.484375 -4.828125 22.484375 -3.515625 C 21.492188 -2.210938 20.179688 -1.238281 18.546875 -0.59375 C 16.910156 0.0507812 15.148438 0.375 13.265625 0.375 Z M 13.265625 0.375 "/></g></g></g><g fill="#fafafa" fill-opacity="1"><g transform="translate(219.316522, 92.572143)"><g><path d="M 5.75 0 C 5.195312 0 4.734375 -0.179688 4.359375 -0.546875 C 3.992188 -0.921875 3.8125 -1.398438 3.8125 -1.984375 L 3.8125 -27.796875 C 3.8125 -28.378906 3.992188 -28.851562 4.359375 -29.21875 C 4.734375 -29.59375 5.195312 -29.78125 5.75 -29.78125 C 6.03125 -29.78125 6.3125 -29.707031 6.59375 -29.5625 C 6.875 -29.425781 7.101562 -29.253906 7.28125 -29.046875 L 23.90625 -6.9375 L 23.90625 -27.796875 C 23.90625 -28.378906 24.09375 -28.851562 24.46875 -29.21875 C 24.851562 -29.59375 25.328125 -29.78125 25.890625 -29.78125 C 26.441406 -29.78125 26.898438 -29.59375 27.265625 -29.21875 C 27.640625 -28.851562 27.828125 -28.378906 27.828125 -27.796875 L 27.828125 -1.984375 C 27.828125 -1.398438 27.640625 -0.921875 27.265625 -0.546875 C 26.898438 -0.179688 26.441406 0 25.890625 0 C 25.609375 0 25.320312 -0.0546875 25.03125 -0.171875 C 24.738281 -0.285156 24.515625 -0.457031 24.359375 -0.6875 L 7.734375 -22.796875 L 7.734375 -1.984375 C 7.734375 -1.421875 7.550781 -0.945312 7.1875 -0.5625 C 6.820312 -0.1875 6.34375 0 5.75 0 Z M 5.75 0 "/></g></g></g><g fill="#fafafa" fill-opacity="1"><g transform="translate(258.201819, 92.572143)"><g><path d="M 5.796875 0 C 5.234375 0 4.757812 -0.1875 4.375 -0.5625 C 4 -0.945312 3.8125 -1.421875 3.8125 -1.984375 L 3.8125 -27.796875 C 3.8125 -28.378906 4 -28.851562 4.375 -29.21875 C 4.757812 -29.59375 5.234375 -29.78125 5.796875 -29.78125 L 23.03125 -29.78125 C 23.613281 -29.78125 24.082031 -29.609375 24.4375 -29.265625 C 24.789062 -28.921875 24.96875 -28.46875 24.96875 -27.90625 C 24.96875 -27.375 24.789062 -26.941406 24.4375 -26.609375 C 24.082031 -26.273438 23.613281 -26.109375 23.03125 -26.109375 L 7.78125 -26.109375 L 7.78125 -16.84375 L 18.71875 -16.84375 C 19.28125 -16.84375 19.742188 -16.671875 20.109375 -16.328125 C 20.472656 -15.992188 20.65625 -15.554688 20.65625 -15.015625 C 20.65625 -14.484375 20.472656 -14.046875 20.109375 -13.703125 C 19.742188 -13.359375 19.28125 -13.1875 18.71875 -13.1875 L 7.78125 -13.1875 L 7.78125 -3.65625 L 23.03125 -3.65625 C 23.613281 -3.65625 24.082031 -3.488281 24.4375 -3.15625 C 24.789062 -2.832031 24.96875 -2.40625 24.96875 -1.875 C 24.96875 -1.3125 24.789062 -0.859375 24.4375 -0.515625 C 24.082031 -0.171875 23.613281 0 23.03125 0 Z M 5.796875 0 "/></g></g></g><g fill="#fafafa" fill-opacity="1"><g transform="translate(292.131632, 92.572143)"><g><path d="M 22.796875 -29.78125 C 23.328125 -29.78125 23.765625 -29.609375 24.109375 -29.265625 C 24.453125 -28.921875 24.625 -28.484375 24.625 -27.953125 C 24.625 -27.410156 24.453125 -26.96875 24.109375 -26.625 C 23.765625 -26.28125 23.328125 -26.109375 22.796875 -26.109375 L 14.609375 -26.109375 L 14.609375 -1.984375 C 14.609375 -1.421875 14.414062 -0.945312 14.03125 -0.5625 C 13.644531 -0.1875 13.175781 0 12.625 0 C 12.0625 0 11.585938 -0.1875 11.203125 -0.5625 C 10.828125 -0.945312 10.640625 -1.421875 10.640625 -1.984375 L 10.640625 -26.109375 L 2.40625 -26.109375 C 1.863281 -26.109375 1.421875 -26.28125 1.078125 -26.625 C 0.742188 -26.96875 0.578125 -27.410156 0.578125 -27.953125 C 0.578125 -28.484375 0.742188 -28.921875 1.078125 -29.265625 C 1.421875 -29.609375 1.863281 -29.78125 2.40625 -29.78125 Z M 22.796875 -29.78125 "/></g></g></g><g fill="#85ccff" fill-opacity="1"><g transform="translate(133.673608, 116.067842)"><g><path d="M 8.734375 -11.28125 C 8.890625 -11.28125 9.015625 -11.234375 9.109375 -11.140625 C 9.203125 -11.046875 9.25 -10.921875 9.25 -10.765625 C 9.25 -10.617188 9.203125 -10.5 9.109375 -10.40625 C 9.015625 -10.3125 8.890625 -10.265625 8.734375 -10.265625 L 5.296875 -10.265625 L 5.296875 -0.5625 C 5.296875 -0.40625 5.238281 -0.269531 5.125 -0.15625 C 5.019531 -0.0507812 4.882812 0 4.71875 0 C 4.570312 0 4.441406 -0.0507812 4.328125 -0.15625 C 4.210938 -0.269531 4.15625 -0.40625 4.15625 -0.5625 L 4.15625 -10.265625 L 0.734375 -10.265625 C 0.578125 -10.265625 0.453125 -10.3125 0.359375 -10.40625 C 0.265625 -10.5 0.21875 -10.617188 0.21875 -10.765625 C 0.21875 -10.921875 0.265625 -11.046875 0.359375 -11.140625 C 0.453125 -11.234375 0.578125 -11.28125 0.734375 -11.28125 Z M 8.734375 -11.28125 "/></g></g></g><g fill="#85ccff" fill-opacity="1"><g transform="translate(146.44877, 116.067842)"><g><path d="M 2.015625 0 C 1.859375 0 1.722656 -0.0507812 1.609375 -0.15625 C 1.503906 -0.269531 1.453125 -0.40625 1.453125 -0.5625 L 1.453125 -10.71875 C 1.453125 -10.882812 1.503906 -11.019531 1.609375 -11.125 C 1.722656 -11.226562 1.859375 -11.28125 2.015625 -11.28125 L 8.78125 -11.28125 C 8.945312 -11.28125 9.082031 -11.226562 9.1875 -11.125 C 9.289062 -11.019531 9.34375 -10.890625 9.34375 -10.734375 C 9.34375 -10.578125 9.289062 -10.445312 9.1875 -10.34375 C 9.082031 -10.25 8.945312 -10.203125 8.78125 -10.203125 L 2.578125 -10.203125 L 2.578125 -6.21875 L 7.09375 -6.21875 C 7.257812 -6.21875 7.394531 -6.160156 7.5 -6.046875 C 7.601562 -5.941406 7.65625 -5.816406 7.65625 -5.671875 C 7.65625 -5.515625 7.597656 -5.378906 7.484375 -5.265625 C 7.378906 -5.160156 7.25 -5.109375 7.09375 -5.109375 L 2.578125 -5.109375 L 2.578125 -1.078125 L 8.78125 -1.078125 C 8.945312 -1.078125 9.082031 -1.023438 9.1875 -0.921875 C 9.289062 -0.828125 9.34375 -0.703125 9.34375 -0.546875 C 9.34375 -0.390625 9.289062 -0.257812 9.1875 -0.15625 C 9.082031 -0.0507812 8.945312 0 8.78125 0 Z M 2.015625 0 "/></g></g></g><g fill="#85ccff" fill-opacity="1"><g transform="translate(159.758554, 116.067842)"><g><path d="M 6.515625 0.140625 C 5.492188 0.140625 4.550781 -0.117188 3.6875 -0.640625 C 2.832031 -1.160156 2.148438 -1.863281 1.640625 -2.75 C 1.140625 -3.632812 0.890625 -4.601562 0.890625 -5.65625 C 0.890625 -6.695312 1.140625 -7.660156 1.640625 -8.546875 C 2.148438 -9.429688 2.832031 -10.132812 3.6875 -10.65625 C 4.539062 -11.175781 5.484375 -11.4375 6.515625 -11.4375 C 7.210938 -11.4375 7.84375 -11.332031 8.40625 -11.125 C 8.976562 -10.925781 9.53125 -10.601562 10.0625 -10.15625 C 10.164062 -10.082031 10.21875 -9.972656 10.21875 -9.828125 C 10.21875 -9.753906 10.195312 -9.6875 10.15625 -9.625 C 10.125 -9.5625 10.070312 -9.515625 10 -9.484375 C 9.976562 -9.410156 9.929688 -9.351562 9.859375 -9.3125 C 9.796875 -9.28125 9.726562 -9.265625 9.65625 -9.265625 C 9.507812 -9.265625 9.390625 -9.304688 9.296875 -9.390625 C 8.921875 -9.734375 8.507812 -9.976562 8.0625 -10.125 C 7.625 -10.28125 7.109375 -10.359375 6.515625 -10.359375 C 5.703125 -10.359375 4.945312 -10.144531 4.25 -9.71875 C 3.5625 -9.289062 3.015625 -8.710938 2.609375 -7.984375 C 2.203125 -7.265625 2 -6.488281 2 -5.65625 C 2 -4.789062 2.195312 -4 2.59375 -3.28125 C 3 -2.5625 3.550781 -1.988281 4.25 -1.5625 C 4.945312 -1.132812 5.703125 -0.921875 6.515625 -0.921875 C 7.566406 -0.921875 8.515625 -1.257812 9.359375 -1.9375 C 9.472656 -2.007812 9.582031 -2.046875 9.6875 -2.046875 C 9.832031 -2.046875 9.957031 -1.992188 10.0625 -1.890625 C 10.164062 -1.796875 10.21875 -1.664062 10.21875 -1.5 C 10.21875 -1.34375 10.164062 -1.207031 10.0625 -1.09375 C 9.15625 -0.269531 7.972656 0.140625 6.515625 0.140625 Z M 6.515625 0.140625 "/></g></g></g><g fill="#85ccff" fill-opacity="1"><g transform="translate(174.209829, 116.067842)"><g><path d="M 2.015625 0 C 1.859375 0 1.722656 -0.0507812 1.609375 -0.15625 C 1.503906 -0.269531 1.453125 -0.40625 1.453125 -0.5625 L 1.453125 -10.71875 C 1.453125 -10.882812 1.503906 -11.019531 1.609375 -11.125 C 1.722656 -11.226562 1.859375 -11.28125 2.015625 -11.28125 C 2.171875 -11.28125 2.300781 -11.226562 2.40625 -11.125 C 2.519531 -11.019531 2.578125 -10.882812 2.578125 -10.71875 L 2.578125 -6.21875 L 9.625 -6.21875 L 9.625 -10.71875 C 9.625 -10.882812 9.675781 -11.019531 9.78125 -11.125 C 9.894531 -11.226562 10.03125 -11.28125 10.1875 -11.28125 C 10.351562 -11.28125 10.488281 -11.226562 10.59375 -11.125 C 10.695312 -11.019531 10.75 -10.882812 10.75 -10.71875 L 10.75 -0.5625 C 10.75 -0.40625 10.695312 -0.269531 10.59375 -0.15625 C 10.488281 -0.0507812 10.351562 0 10.1875 0 C 10.03125 0 9.894531 -0.0507812 9.78125 -0.15625 C 9.675781 -0.269531 9.625 -0.40625 9.625 -0.5625 L 9.625 -5.203125 L 2.578125 -5.203125 L 2.578125 -0.5625 C 2.578125 -0.40625 2.519531 -0.269531 2.40625 -0.15625 C 2.300781 -0.0507812 2.171875 0 2.015625 0 Z M 2.015625 0 "/></g></g></g><g fill="#85ccff" fill-opacity="1"><g transform="translate(189.715895, 116.067842)"><g/></g></g><g fill="#85ccff" fill-opacity="1"><g transform="translate(197.260435, 116.067842)"><g><path d="M 4.921875 0.140625 C 4.003906 0.140625 3.191406 -0.0507812 2.484375 -0.4375 C 1.773438 -0.832031 1.265625 -1.363281 0.953125 -2.03125 C 0.910156 -2.09375 0.890625 -2.164062 0.890625 -2.25 C 0.890625 -2.382812 0.941406 -2.5 1.046875 -2.59375 C 1.148438 -2.6875 1.285156 -2.734375 1.453125 -2.734375 C 1.578125 -2.734375 1.6875 -2.703125 1.78125 -2.640625 C 1.882812 -2.578125 1.960938 -2.488281 2.015625 -2.375 C 2.234375 -1.9375 2.597656 -1.582031 3.109375 -1.3125 C 3.628906 -1.050781 4.234375 -0.921875 4.921875 -0.921875 C 5.703125 -0.921875 6.332031 -1.109375 6.8125 -1.484375 C 7.300781 -1.867188 7.546875 -2.40625 7.546875 -3.09375 C 7.546875 -3.695312 7.320312 -4.207031 6.875 -4.625 C 6.425781 -5.039062 5.753906 -5.304688 4.859375 -5.421875 C 3.742188 -5.554688 2.863281 -5.90625 2.21875 -6.46875 C 1.570312 -7.03125 1.25 -7.722656 1.25 -8.546875 C 1.25 -9.117188 1.40625 -9.625 1.71875 -10.0625 C 2.039062 -10.5 2.476562 -10.835938 3.03125 -11.078125 C 3.582031 -11.316406 4.210938 -11.4375 4.921875 -11.4375 C 5.679688 -11.4375 6.347656 -11.265625 6.921875 -10.921875 C 7.503906 -10.585938 7.957031 -10.148438 8.28125 -9.609375 C 8.351562 -9.503906 8.390625 -9.390625 8.390625 -9.265625 C 8.390625 -9.078125 8.300781 -8.929688 8.125 -8.828125 C 8.039062 -8.785156 7.953125 -8.765625 7.859375 -8.765625 C 7.753906 -8.765625 7.65625 -8.789062 7.5625 -8.84375 C 7.46875 -8.90625 7.394531 -8.984375 7.34375 -9.078125 C 6.800781 -9.921875 5.988281 -10.347656 4.90625 -10.359375 C 4.125 -10.359375 3.503906 -10.191406 3.046875 -9.859375 C 2.597656 -9.535156 2.375 -9.070312 2.375 -8.46875 C 2.375 -7.34375 3.285156 -6.660156 5.109375 -6.421875 C 6.296875 -6.242188 7.179688 -5.875 7.765625 -5.3125 C 8.359375 -4.757812 8.65625 -4.023438 8.65625 -3.109375 C 8.65625 -2.429688 8.488281 -1.847656 8.15625 -1.359375 C 7.832031 -0.867188 7.382812 -0.492188 6.8125 -0.234375 C 6.25 0.015625 5.617188 0.140625 4.921875 0.140625 Z M 4.921875 0.140625 "/></g></g></g><g fill="#85ccff" fill-opacity="1"><g transform="translate(210.136742, 116.067842)"><g><path d="M 6.65625 0.140625 C 5.5625 0.140625 4.578125 -0.109375 3.703125 -0.609375 C 2.828125 -1.109375 2.140625 -1.796875 1.640625 -2.671875 C 1.140625 -3.554688 0.890625 -4.550781 0.890625 -5.65625 C 0.890625 -6.75 1.140625 -7.734375 1.640625 -8.609375 C 2.140625 -9.484375 2.828125 -10.171875 3.703125 -10.671875 C 4.578125 -11.179688 5.5625 -11.4375 6.65625 -11.4375 C 7.75 -11.4375 8.734375 -11.179688 9.609375 -10.671875 C 10.492188 -10.171875 11.1875 -9.484375 11.6875 -8.609375 C 12.1875 -7.734375 12.4375 -6.75 12.4375 -5.65625 C 12.4375 -4.550781 12.1875 -3.554688 11.6875 -2.671875 C 11.1875 -1.796875 10.492188 -1.109375 9.609375 -0.609375 C 8.734375 -0.109375 7.75 0.140625 6.65625 0.140625 Z M 6.65625 -0.921875 C 7.539062 -0.921875 8.335938 -1.128906 9.046875 -1.546875 C 9.753906 -1.960938 10.304688 -2.53125 10.703125 -3.25 C 11.109375 -3.96875 11.3125 -4.769531 11.3125 -5.65625 C 11.3125 -6.53125 11.109375 -7.328125 10.703125 -8.046875 C 10.304688 -8.765625 9.753906 -9.328125 9.046875 -9.734375 C 8.335938 -10.148438 7.539062 -10.359375 6.65625 -10.359375 C 5.769531 -10.359375 4.972656 -10.148438 4.265625 -9.734375 C 3.554688 -9.328125 3 -8.765625 2.59375 -8.046875 C 2.195312 -7.328125 2 -6.53125 2 -5.65625 C 2 -4.769531 2.195312 -3.96875 2.59375 -3.25 C 3 -2.53125 3.554688 -1.960938 4.265625 -1.546875 C 4.972656 -1.128906 5.769531 -0.921875 6.65625 -0.921875 Z M 6.65625 -0.921875 "/></g></g></g><g fill="#85ccff" fill-opacity="1"><g transform="translate(226.755405, 116.067842)"><g><path d="M 2.015625 0 C 1.859375 0 1.722656 -0.0507812 1.609375 -0.15625 C 1.503906 -0.269531 1.453125 -0.40625 1.453125 -0.5625 L 1.453125 -10.71875 C 1.453125 -10.875 1.503906 -11.003906 1.609375 -11.109375 C 1.722656 -11.222656 1.859375 -11.28125 2.015625 -11.28125 C 2.171875 -11.28125 2.300781 -11.226562 2.40625 -11.125 C 2.519531 -11.019531 2.578125 -10.882812 2.578125 -10.71875 L 2.578125 -1.0625 L 8.21875 -1.0625 C 8.382812 -1.0625 8.519531 -1.007812 8.625 -0.90625 C 8.726562 -0.8125 8.78125 -0.6875 8.78125 -0.53125 C 8.78125 -0.375 8.726562 -0.242188 8.625 -0.140625 C 8.519531 -0.046875 8.382812 0 8.21875 0 Z M 2.015625 0 "/></g></g></g><g fill="#85ccff" fill-opacity="1"><g transform="translate(239.212687, 116.067842)"><g><path d="M 5.9375 0.234375 C 5.070312 0.234375 4.296875 0.0664062 3.609375 -0.265625 C 2.929688 -0.609375 2.398438 -1.082031 2.015625 -1.6875 C 1.640625 -2.289062 1.453125 -2.972656 1.453125 -3.734375 L 1.453125 -10.71875 C 1.453125 -10.882812 1.503906 -11.019531 1.609375 -11.125 C 1.710938 -11.226562 1.847656 -11.28125 2.015625 -11.28125 C 2.171875 -11.28125 2.300781 -11.226562 2.40625 -11.125 C 2.519531 -11.019531 2.578125 -10.882812 2.578125 -10.71875 L 2.578125 -3.734375 C 2.578125 -3.171875 2.71875 -2.671875 3 -2.234375 C 3.28125 -1.796875 3.675781 -1.453125 4.1875 -1.203125 C 4.695312 -0.960938 5.28125 -0.84375 5.9375 -0.84375 C 6.582031 -0.84375 7.15625 -0.960938 7.65625 -1.203125 C 8.15625 -1.453125 8.546875 -1.796875 8.828125 -2.234375 C 9.117188 -2.671875 9.265625 -3.171875 9.265625 -3.734375 L 9.265625 -10.71875 C 9.265625 -10.882812 9.316406 -11.019531 9.421875 -11.125 C 9.523438 -11.226562 9.660156 -11.28125 9.828125 -11.28125 C 9.992188 -11.28125 10.128906 -11.226562 10.234375 -11.125 C 10.335938 -11.019531 10.390625 -10.882812 10.390625 -10.71875 L 10.390625 -3.734375 C 10.390625 -2.972656 10.195312 -2.289062 9.8125 -1.6875 C 9.4375 -1.082031 8.910156 -0.609375 8.234375 -0.265625 C 7.566406 0.0664062 6.800781 0.234375 5.9375 0.234375 Z M 5.9375 0.234375 "/></g></g></g><g fill="#85ccff" fill-opacity="1"><g transform="translate(254.357522, 116.067842)"><g><path d="M 8.734375 -11.28125 C 8.890625 -11.28125 9.015625 -11.234375 9.109375 -11.140625 C 9.203125 -11.046875 9.25 -10.921875 9.25 -10.765625 C 9.25 -10.617188 9.203125 -10.5 9.109375 -10.40625 C 9.015625 -10.3125 8.890625 -10.265625 8.734375 -10.265625 L 5.296875 -10.265625 L 5.296875 -0.5625 C 5.296875 -0.40625 5.238281 -0.269531 5.125 -0.15625 C 5.019531 -0.0507812 4.882812 0 4.71875 0 C 4.570312 0 4.441406 -0.0507812 4.328125 -0.15625 C 4.210938 -0.269531 4.15625 -0.40625 4.15625 -0.5625 L 4.15625 -10.265625 L 0.734375 -10.265625 C 0.578125 -10.265625 0.453125 -10.3125 0.359375 -10.40625 C 0.265625 -10.5 0.21875 -10.617188 0.21875 -10.765625 C 0.21875 -10.921875 0.265625 -11.046875 0.359375 -11.140625 C 0.453125 -11.234375 0.578125 -11.28125 0.734375 -11.28125 Z M 8.734375 -11.28125 "/></g></g></g><g fill="#85ccff" fill-opacity="1"><g transform="translate(267.132687, 116.067842)"><g><path d="M 2.015625 0 C 1.859375 0 1.722656 -0.0507812 1.609375 -0.15625 C 1.503906 -0.269531 1.453125 -0.40625 1.453125 -0.5625 L 1.453125 -10.71875 C 1.453125 -10.882812 1.503906 -11.019531 1.609375 -11.125 C 1.722656 -11.226562 1.859375 -11.28125 2.015625 -11.28125 C 2.171875 -11.28125 2.300781 -11.226562 2.40625 -11.125 C 2.519531 -11.019531 2.578125 -10.882812 2.578125 -10.71875 L 2.578125 -0.5625 C 2.578125 -0.40625 2.519531 -0.269531 2.40625 -0.15625 C 2.300781 -0.0507812 2.171875 0 2.015625 0 Z M 2.015625 0 "/></g></g></g><g fill="#85ccff" fill-opacity="1"><g transform="translate(274.460488, 116.067842)"><g><path d="M 6.65625 0.140625 C 5.5625 0.140625 4.578125 -0.109375 3.703125 -0.609375 C 2.828125 -1.109375 2.140625 -1.796875 1.640625 -2.671875 C 1.140625 -3.554688 0.890625 -4.550781 0.890625 -5.65625 C 0.890625 -6.75 1.140625 -7.734375 1.640625 -8.609375 C 2.140625 -9.484375 2.828125 -10.171875 3.703125 -10.671875 C 4.578125 -11.179688 5.5625 -11.4375 6.65625 -11.4375 C 7.75 -11.4375 8.734375 -11.179688 9.609375 -10.671875 C 10.492188 -10.171875 11.1875 -9.484375 11.6875 -8.609375 C 12.1875 -7.734375 12.4375 -6.75 12.4375 -5.65625 C 12.4375 -4.550781 12.1875 -3.554688 11.6875 -2.671875 C 11.1875 -1.796875 10.492188 -1.109375 9.609375 -0.609375 C 8.734375 -0.109375 7.75 0.140625 6.65625 0.140625 Z M 6.65625 -0.921875 C 7.539062 -0.921875 8.335938 -1.128906 9.046875 -1.546875 C 9.753906 -1.960938 10.304688 -2.53125 10.703125 -3.25 C 11.109375 -3.96875 11.3125 -4.769531 11.3125 -5.65625 C 11.3125 -6.53125 11.109375 -7.328125 10.703125 -8.046875 C 10.304688 -8.765625 9.753906 -9.328125 9.046875 -9.734375 C 8.335938 -10.148438 7.539062 -10.359375 6.65625 -10.359375 C 5.769531 -10.359375 4.972656 -10.148438 4.265625 -9.734375 C 3.554688 -9.328125 3 -8.765625 2.59375 -8.046875 C 2.195312 -7.328125 2 -6.53125 2 -5.65625 C 2 -4.769531 2.195312 -3.96875 2.59375 -3.25 C 3 -2.53125 3.554688 -1.960938 4.265625 -1.546875 C 4.972656 -1.128906 5.769531 -0.921875 6.65625 -0.921875 Z M 6.65625 -0.921875 "/></g></g></g><g fill="#85ccff" fill-opacity="1"><g transform="translate(291.07915, 116.067842)"><g><path d="M 2.015625 0 C 1.847656 0 1.710938 -0.0507812 1.609375 -0.15625 C 1.503906 -0.257812 1.453125 -0.394531 1.453125 -0.5625 L 1.453125 -10.71875 C 1.453125 -10.882812 1.503906 -11.019531 1.609375 -11.125 C 1.710938 -11.226562 1.847656 -11.28125 2.015625 -11.28125 C 2.179688 -11.28125 2.320312 -11.210938 2.4375 -11.078125 L 9.34375 -2.015625 L 9.34375 -10.71875 C 9.34375 -10.882812 9.398438 -11.019531 9.515625 -11.125 C 9.628906 -11.226562 9.765625 -11.28125 9.921875 -11.28125 C 10.078125 -11.28125 10.207031 -11.226562 10.3125 -11.125 C 10.425781 -11.019531 10.484375 -10.882812 10.484375 -10.71875 L 10.484375 -0.5625 C 10.484375 -0.40625 10.425781 -0.269531 10.3125 -0.15625 C 10.207031 -0.0507812 10.078125 0 9.921875 0 C 9.722656 0 9.582031 -0.0625 9.5 -0.1875 L 2.578125 -9.265625 L 2.578125 -0.5625 C 2.578125 -0.40625 2.519531 -0.269531 2.40625 -0.15625 C 2.300781 -0.0507812 2.171875 0 2.015625 0 Z M 2.015625 0 "/></g></g></g><g fill="#85ccff" fill-opacity="1"><g transform="translate(306.310686, 116.067842)"><g><path d="M 4.921875 0.140625 C 4.003906 0.140625 3.191406 -0.0507812 2.484375 -0.4375 C 1.773438 -0.832031 1.265625 -1.363281 0.953125 -2.03125 C 0.910156 -2.09375 0.890625 -2.164062 0.890625 -2.25 C 0.890625 -2.382812 0.941406 -2.5 1.046875 -2.59375 C 1.148438 -2.6875 1.285156 -2.734375 1.453125 -2.734375 C 1.578125 -2.734375 1.6875 -2.703125 1.78125 -2.640625 C 1.882812 -2.578125 1.960938 -2.488281 2.015625 -2.375 C 2.234375 -1.9375 2.597656 -1.582031 3.109375 -1.3125 C 3.628906 -1.050781 4.234375 -0.921875 4.921875 -0.921875 C 5.703125 -0.921875 6.332031 -1.109375 6.8125 -1.484375 C 7.300781 -1.867188 7.546875 -2.40625 7.546875 -3.09375 C 7.546875 -3.695312 7.320312 -4.207031 6.875 -4.625 C 6.425781 -5.039062 5.753906 -5.304688 4.859375 -5.421875 C 3.742188 -5.554688 2.863281 -5.90625 2.21875 -6.46875 C 1.570312 -7.03125 1.25 -7.722656 1.25 -8.546875 C 1.25 -9.117188 1.40625 -9.625 1.71875 -10.0625 C 2.039062 -10.5 2.476562 -10.835938 3.03125 -11.078125 C 3.582031 -11.316406 4.210938 -11.4375 4.921875 -11.4375 C 5.679688 -11.4375 6.347656 -11.265625 6.921875 -10.921875 C 7.503906 -10.585938 7.957031 -10.148438 8.28125 -9.609375 C 8.351562 -9.503906 8.390625 -9.390625 8.390625 -9.265625 C 8.390625 -9.078125 8.300781 -8.929688 8.125 -8.828125 C 8.039062 -8.785156 7.953125 -8.765625 7.859375 -8.765625 C 7.753906 -8.765625 7.65625 -8.789062 7.5625 -8.84375 C 7.46875 -8.90625 7.394531 -8.984375 7.34375 -9.078125 C 6.800781 -9.921875 5.988281 -10.347656 4.90625 -10.359375 C 4.125 -10.359375 3.503906 -10.191406 3.046875 -9.859375 C 2.597656 -9.535156 2.375 -9.070312 2.375 -8.46875 C 2.375 -7.34375 3.285156 -6.660156 5.109375 -6.421875 C 6.296875 -6.242188 7.179688 -5.875 7.765625 -5.3125 C 8.359375 -4.757812 8.65625 -4.023438 8.65625 -3.109375 C 8.65625 -2.429688 8.488281 -1.847656 8.15625 -1.359375 C 7.832031 -0.867188 7.382812 -0.492188 6.8125 -0.234375 C 6.25 0.015625 5.617188 0.140625 4.921875 0.140625 Z M 4.921875 0.140625 "/></g></g></g><g clip-path="url(#f2ac4476c8)"><path fill="#000aff" d="M 175.464844 53.277344 C 175.335938 52.871094 175.15625 52.515625 174.925781 52.257812 C 174.808594 52.125 174.667969 51.988281 174.511719 51.878906 C 174.382812 51.785156 174.230469 51.703125 174.089844 51.636719 C 173.984375 51.59375 173.882812 51.554688 173.792969 51.515625 C 173.730469 51.488281 173.664062 51.460938 173.601562 51.433594 L 173.523438 51.390625 C 173.40625 51.335938 173.28125 51.285156 173.152344 51.242188 C 172.957031 51.203125 172.765625 51.175781 172.585938 51.148438 C 172.417969 51.121094 172.25 51.121094 172.058594 51.105469 C 172.019531 51.105469 171.96875 51.105469 171.929688 51.105469 C 171.648438 51.105469 171.351562 51.132812 171.003906 51.1875 C 170.710938 51.230469 170.402344 51.308594 170.105469 51.433594 C 169.949219 51.488281 169.796875 51.554688 169.667969 51.636719 C 169.527344 51.71875 169.386719 51.839844 169.257812 51.988281 C 169.128906 52.152344 169.011719 52.273438 168.921875 52.410156 C 168.882812 52.476562 168.832031 52.542969 168.792969 52.613281 C 168.769531 52.652344 168.742188 52.695312 168.71875 52.734375 C 168.652344 52.84375 168.589844 52.9375 168.550781 53.046875 C 168.5 53.15625 168.449219 53.289062 168.410156 53.441406 C 168.382812 53.546875 168.359375 53.65625 168.34375 53.765625 C 168.332031 53.792969 168.332031 53.832031 168.320312 53.859375 C 168.28125 54.035156 168.253906 54.210938 168.230469 54.457031 C 168.191406 54.796875 168.179688 55.148438 168.203125 55.542969 C 168.214844 55.71875 168.230469 55.933594 168.28125 56.136719 C 168.332031 56.328125 168.394531 56.519531 168.484375 56.695312 C 168.5625 56.84375 168.667969 57.007812 168.808594 57.183594 C 168.882812 57.292969 168.988281 57.386719 169.078125 57.480469 L 169.15625 57.5625 C 169.398438 57.820312 169.695312 58.039062 170.054688 58.226562 C 170.222656 58.308594 170.402344 58.375 170.621094 58.445312 C 170.824219 58.5 171.042969 58.539062 171.210938 58.566406 C 171.363281 58.59375 171.53125 58.59375 171.75 58.605469 C 171.800781 58.605469 171.839844 58.605469 171.890625 58.605469 C 171.929688 58.605469 171.96875 58.605469 172.007812 58.605469 C 172.136719 58.605469 172.25 58.578125 172.339844 58.566406 C 172.507812 58.539062 172.675781 58.5 172.855469 58.429688 C 173.035156 58.375 173.214844 58.28125 173.382812 58.199219 C 173.460938 58.160156 173.550781 58.117188 173.640625 58.0625 C 173.703125 58.023438 173.769531 57.984375 173.820312 57.941406 L 173.859375 57.914062 C 174 57.808594 174.140625 57.683594 174.320312 57.507812 C 174.476562 57.359375 174.589844 57.222656 174.691406 57.101562 C 174.835938 56.9375 174.9375 56.734375 175.039062 56.558594 C 175.144531 56.367188 175.21875 56.164062 175.296875 55.976562 C 175.363281 55.8125 175.425781 55.636719 175.464844 55.472656 C 175.515625 55.285156 175.542969 55.082031 175.566406 54.890625 C 175.578125 54.726562 175.59375 54.550781 175.605469 54.347656 C 175.605469 54.132812 175.578125 53.914062 175.554688 53.738281 C 175.554688 53.601562 175.515625 53.453125 175.464844 53.277344 Z M 175.464844 53.277344 " fill-opacity="1" fill-rule="nonzero"/></g></svg>