<?xml version="1.0" encoding="UTF-8" standalone="no"?>
<svg
   width="428"
   zoomAndPan="magnify"
   viewBox="0 0 321.00009 128.25004"
   height="171"
   preserveAspectRatio="xMidYMid"
   version="1.0"
   id="svg3181"
   sodipodi:docname="Bisnet_1.svg"
   inkscape:version="1.2.2 (732a01da63, 2022-12-09)"
   xmlns:inkscape="http://www.inkscape.org/namespaces/inkscape"
   xmlns:sodipodi="http://sodipodi.sourceforge.net/DTD/sodipodi-0.dtd"
   xmlns="http://www.w3.org/2000/svg"
   xmlns:svg="http://www.w3.org/2000/svg">
  <sodipodi:namedview
     id="namedview3183"
     pagecolor="#ffffff"
     bordercolor="#000000"
     borderopacity="0.25"
     inkscape:showpageshadow="2"
     inkscape:pageopacity="0.0"
     inkscape:pagecheckerboard="0"
     inkscape:deskcolor="#d1d1d1"
     showgrid="false"
     inkscape:zoom="2.1220032"
     inkscape:cx="249.764"
     inkscape:cy="117.57758"
     inkscape:window-width="1920"
     inkscape:window-height="1001"
     inkscape:window-x="-9"
     inkscape:window-y="-9"
     inkscape:window-maximized="1"
     inkscape:current-layer="svg3181" />
  <defs
     id="defs2969">
    <rect
       x="143.26086"
       y="142.31835"
       width="265.78659"
       height="21.67763"
       id="rect1005" />
    <g
       id="g2952" />
    <clipPath
       id="0641ef76b2">
      <path
         d="M 0,1.484375 H 82 V 60 H 0 Z m 0,0"
         clip-rule="nonzero"
         id="path2954" />
    </clipPath>
    <clipPath
       id="a321d564d4">
      <path
         d="m 112,51 h 41.75 v 6 H 112 Z m 0,0"
         clip-rule="nonzero"
         id="path2957" />
    </clipPath>
    <clipPath
       id="2bc0f2b05b">
      <path
         d="m 56,84 h 45 v 63.73437 H 56 Z m 0,0"
         clip-rule="nonzero"
         id="path2960" />
    </clipPath>
    <clipPath
       id="74c290616a">
      <path
         d="m 56,84 h 52 v 63.73437 H 56 Z m 0,0"
         clip-rule="nonzero"
         id="path2963" />
    </clipPath>
    <clipPath
       id="e8efe82bf5">
      <path
         d="m 168.14062,51.105469 h 7.5 v 7.5 h -7.5 z m 0,0"
         clip-rule="nonzero"
         id="path2966" />
    </clipPath>
    <pattern
       id="EMFhbasepattern"
       patternUnits="userSpaceOnUse"
       width="6"
       height="6"
       x="0"
       y="0" />
  </defs>
  <g
     fill="#fafafa"
     fill-opacity="1"
     id="g3025"
     transform="translate(71.394825,-15.197908)">
    <g
       transform="translate(132.20297,92.572143)"
       id="g3023">
      <g
         id="g3021">
        <path
           d="M 5.796875,0 C 5.234375,0 4.757812,-0.1875 4.375,-0.5625 4,-0.945312 3.8125,-1.421875 3.8125,-1.984375 v -25.8125 c 0,-0.582031 0.1875,-1.054687 0.5625,-1.421875 0.382812,-0.375 0.859375,-0.5625 1.421875,-0.5625 h 9.109375 c 1.707031,0 3.21875,0.339844 4.53125,1.015625 1.320312,0.679687 2.359375,1.621094 3.109375,2.828125 0.75,1.199219 1.125,2.5625 1.125,4.09375 0,1.242188 -0.339844,2.359375 -1.015625,3.359375 -0.667969,0.992187 -1.585938,1.789063 -2.75,2.390625 1.726562,0.40625 3.085938,1.226562 4.078125,2.453125 0.988281,1.21875 1.484375,2.765625 1.484375,4.640625 0,1.730469 -0.417969,3.28125 -1.25,4.65625 -0.824219,1.375 -1.980469,2.445312 -3.46875,3.203125 C 19.269531,-0.378906 17.585938,0 15.703125,0 Z m 9.109375,-17.53125 c 1.5,0 2.695312,-0.367188 3.59375,-1.109375 0.90625,-0.738281 1.359375,-1.804687 1.359375,-3.203125 0,-1.394531 -0.453125,-2.453125 -1.359375,-3.171875 -0.898438,-0.726563 -2.09375,-1.09375 -3.59375,-1.09375 h -7.125 v 8.578125 z m 0.796875,13.875 c 1.78125,0 3.21875,-0.460938 4.3125,-1.390625 C 21.109375,-5.972656 21.65625,-7.289062 21.65625,-9 c 0,-1.570312 -0.542969,-2.773438 -1.625,-3.609375 C 18.957031,-13.453125 17.515625,-13.875 15.703125,-13.875 H 7.78125 v 10.21875 z m 0,0"
           id="path3019" />
      </g>
    </g>
  </g>
  <g
     fill="#fafafa"
     fill-opacity="1"
     id="g3033"
     transform="translate(71.394825,-15.197908)">
    <g
       transform="translate(167.00952,92.572143)"
       id="g3031">
      <g
         id="g3029">
        <path
           d="M 5.796875,0 C 5.234375,0 4.757812,-0.1875 4.375,-0.5625 4,-0.945312 3.8125,-1.421875 3.8125,-1.984375 v -25.8125 c 0,-0.582031 0.1875,-1.054687 0.5625,-1.421875 0.382812,-0.375 0.859375,-0.5625 1.421875,-0.5625 0.582031,0 1.054687,0.1875 1.421875,0.5625 0.375,0.367188 0.5625,0.839844 0.5625,1.421875 v 25.8125 c 0,0.5625 -0.1875,1.039063 -0.5625,1.421875 C 6.851562,-0.1875 6.378906,0 5.796875,0 Z m 0,0"
           id="path3027" />
      </g>
    </g>
  </g>
  <g
     fill="#fafafa"
     fill-opacity="1"
     id="g3041"
     transform="translate(71.394825,-15.197908)">
    <g
       transform="translate(185.84415,92.572143)"
       id="g3039">
      <g
         id="g3037">
        <path
           d="M 13.265625,0.375 C 10.796875,0.375 8.550781,-0.179688 6.53125,-1.296875 4.507812,-2.410156 3.117188,-3.875 2.359375,-5.6875 c -0.125,-0.300781 -0.1875,-0.550781 -0.1875,-0.75 0,-0.382812 0.140625,-0.722656 0.421875,-1.015625 0.28125,-0.289063 0.660156,-0.488281 1.140625,-0.59375 0.070313,-0.019531 0.203125,-0.03125 0.390625,-0.03125 0.40625,0 0.789062,0.121094 1.15625,0.359375 0.363281,0.242188 0.632812,0.5625 0.8125,0.96875 0.457031,0.992188 1.359375,1.828125 2.703125,2.515625 1.351563,0.6875 2.84375,1.03125 4.46875,1.03125 1.90625,0 3.519531,-0.4375 4.84375,-1.3125 1.320313,-0.875 1.984375,-2.078125 1.984375,-3.609375 0,-1.445312 -0.5625,-2.679688 -1.6875,-3.703125 -1.117188,-1.03125 -2.8125,-1.660156 -5.09375,-1.890625 -3.15625,-0.3125 -5.636719,-1.234375 -7.4375,-2.765625 -1.804688,-1.539063 -2.703125,-3.46875 -2.703125,-5.78125 0,-1.625 0.460937,-3.023437 1.390625,-4.203125 0.925781,-1.1875 2.195312,-2.09375 3.8125,-2.71875 1.613281,-0.625 3.421875,-0.9375 5.421875,-0.9375 2.1875,0 4.03125,0.449219 5.53125,1.34375 1.5,0.886719 2.769531,2.15625 3.8125,3.8125 0.300781,0.480469 0.453125,0.9375 0.453125,1.375 0,0.554688 -0.25,1.007812 -0.75,1.359375 -0.28125,0.1875 -0.617188,0.28125 -1,0.28125 -0.375,0 -0.730469,-0.09375 -1.0625,-0.28125 -0.335938,-0.195313 -0.589844,-0.460937 -0.765625,-0.796875 -0.6875,-1.144531 -1.546875,-2.015625 -2.578125,-2.609375 -1.03125,-0.59375 -2.335938,-0.890625 -3.90625,-0.890625 -1.929688,0 -3.492188,0.375 -4.6875,1.125 -1.199219,0.75 -1.796875,1.835938 -1.796875,3.25 0,1.324219 0.53125,2.433594 1.59375,3.328125 1.070313,0.886719 2.984375,1.46875 5.734375,1.75 3.050781,0.304687 5.414062,1.226563 7.09375,2.765625 1.675781,1.53125 2.515625,3.558594 2.515625,6.078125 0,1.835937 -0.5,3.40625 -1.5,4.71875 -0.992187,1.304687 -2.304687,2.277344 -3.9375,2.921875 C 16.910156,0.0507812 15.148438,0.375 13.265625,0.375 Z m 0,0"
           id="path3035" />
      </g>
    </g>
  </g>
  <g
     fill="#fafafa"
     fill-opacity="1"
     id="g3049"
     transform="translate(-117.69543,-14.844468)">
    <g
       transform="translate(219.31652,92.572143)"
       id="g3047">
      <g
         id="g3045">
        <path
           d="M 5.75,0 C 5.195312,0 4.734375,-0.179688 4.359375,-0.546875 3.992188,-0.921875 3.8125,-1.398438 3.8125,-1.984375 v -25.8125 c 0,-0.582031 0.179688,-1.054687 0.546875,-1.421875 0.375,-0.375 0.835937,-0.5625 1.390625,-0.5625 0.28125,0 0.5625,0.07422 0.84375,0.21875 0.28125,0.136719 0.507812,0.308594 0.6875,0.515625 l 16.625,22.109375 v -20.859375 c 0,-0.582031 0.1875,-1.054687 0.5625,-1.421875 0.382812,-0.375 0.859375,-0.5625 1.421875,-0.5625 0.550781,0 1.007813,0.1875 1.375,0.5625 0.375,0.367188 0.5625,0.839844 0.5625,1.421875 v 25.8125 c 0,0.585937 -0.1875,1.0625 -0.5625,1.4375 C 26.898438,-0.179688 26.441406,0 25.890625,0 25.609375,0 25.320312,-0.0546875 25.03125,-0.171875 24.738281,-0.285156 24.515625,-0.457031 24.359375,-0.6875 l -16.625,-22.109375 v 20.8125 c 0,0.5625 -0.183594,1.039063 -0.546875,1.421875 C 6.820312,-0.1875 6.34375,0 5.75,0 Z m 0,0"
           id="path3043" />
      </g>
    </g>
  </g>
  <g
     fill="#fafafa"
     fill-opacity="1"
     id="g3057"
     transform="translate(-117.69543,-14.844468)">
    <g
       transform="translate(258.20182,92.572143)"
       id="g3055">
      <g
         id="g3053">
        <path
           d="M 5.796875,0 C 5.234375,0 4.757812,-0.1875 4.375,-0.5625 4,-0.945312 3.8125,-1.421875 3.8125,-1.984375 v -25.8125 c 0,-0.582031 0.1875,-1.054687 0.5625,-1.421875 0.382812,-0.375 0.859375,-0.5625 1.421875,-0.5625 H 23.03125 c 0.582031,0 1.050781,0.171875 1.40625,0.515625 0.351562,0.34375 0.53125,0.796875 0.53125,1.359375 0,0.53125 -0.179688,0.964844 -0.53125,1.296875 -0.355469,0.335937 -0.824219,0.5 -1.40625,0.5 h -15.25 v 9.265625 h 10.9375 c 0.5625,0 1.023438,0.171875 1.390625,0.515625 0.363281,0.335937 0.546875,0.773437 0.546875,1.3125 0,0.53125 -0.183594,0.96875 -0.546875,1.3125 -0.367187,0.34375 -0.828125,0.515625 -1.390625,0.515625 H 7.78125 v 9.53125 h 15.25 c 0.582031,0 1.050781,0.167969 1.40625,0.5 0.351562,0.324219 0.53125,0.75 0.53125,1.28125 0,0.5625 -0.179688,1.015625 -0.53125,1.359375 C 24.082031,-0.171875 23.613281,0 23.03125,0 Z m 0,0"
           id="path3051" />
      </g>
    </g>
  </g>
  <g
     fill="#fafafa"
     fill-opacity="1"
     id="g3065"
     transform="translate(-117.69543,-14.844468)">
    <g
       transform="translate(292.13163,92.572143)"
       id="g3063">
      <g
         id="g3061">
        <path
           d="m 22.796875,-29.78125 c 0.53125,0 0.96875,0.171875 1.3125,0.515625 0.34375,0.34375 0.515625,0.78125 0.515625,1.3125 0,0.542969 -0.171875,0.984375 -0.515625,1.328125 -0.34375,0.34375 -0.78125,0.515625 -1.3125,0.515625 h -8.1875 v 24.125 c 0,0.5625 -0.195313,1.039063 -0.578125,1.421875 C 13.644531,-0.1875 13.175781,0 12.625,0 c -0.5625,0 -1.039062,-0.1875 -1.421875,-0.5625 -0.375,-0.382812 -0.5625,-0.859375 -0.5625,-1.421875 v -24.125 H 2.40625 c -0.542969,0 -0.984375,-0.171875 -1.328125,-0.515625 -0.335937,-0.34375 -0.5,-0.785156 -0.5,-1.328125 0,-0.53125 0.164063,-0.96875 0.5,-1.3125 0.34375,-0.34375 0.785156,-0.515625 1.328125,-0.515625 z m 0,0"
           id="path3059" />
      </g>
    </g>
  </g>
  <g
     fill="#85ccff"
     fill-opacity="1"
     id="g3103">
    <g
       transform="translate(189.46326,116.74001)"
       id="g3101">
      <g
         id="g3099" />
    </g>
  </g>
  <g
     clip-path="url(#e8efe82bf5)"
     id="g3179"
     transform="translate(71.394825,-15.197908)">
    <path
       fill="#000aff"
       d="m 175.46484,53.277344 c -0.1289,-0.40625 -0.30859,-0.761719 -0.53906,-1.019532 -0.11719,-0.132812 -0.25781,-0.269531 -0.41406,-0.378906 -0.12891,-0.09375 -0.28125,-0.175781 -0.42188,-0.242187 -0.10547,-0.04297 -0.20703,-0.08203 -0.29687,-0.121094 -0.0625,-0.02734 -0.12891,-0.05469 -0.19141,-0.08203 l -0.0781,-0.04297 c -0.11719,-0.05469 -0.24219,-0.105469 -0.3711,-0.148437 -0.19531,-0.03906 -0.38672,-0.06641 -0.5664,-0.09375 -0.16797,-0.02734 -0.33594,-0.02734 -0.52735,-0.04297 -0.0391,0 -0.0898,0 -0.1289,0 -0.28125,0 -0.57813,0.02734 -0.92578,0.08203 -0.29297,0.04297 -0.60157,0.121094 -0.89844,0.246094 -0.15625,0.05469 -0.3086,0.121094 -0.4375,0.203125 -0.14063,0.08203 -0.28125,0.203125 -0.41016,0.351562 -0.1289,0.164063 -0.24609,0.285157 -0.33594,0.421875 -0.0391,0.06641 -0.0898,0.132813 -0.1289,0.203125 -0.0234,0.03906 -0.0508,0.08203 -0.0742,0.121094 -0.0664,0.109375 -0.12891,0.203125 -0.16797,0.3125 -0.0508,0.109375 -0.10156,0.242187 -0.14062,0.394531 -0.0273,0.105469 -0.0508,0.214844 -0.0664,0.324219 -0.0117,0.02734 -0.0117,0.06641 -0.0234,0.09375 -0.0391,0.175781 -0.0664,0.351563 -0.0898,0.597656 -0.0391,0.339844 -0.0508,0.691407 -0.0273,1.085938 0.0117,0.175781 0.0273,0.390625 0.0781,0.59375 0.0508,0.191406 0.11328,0.382812 0.20312,0.558593 0.0781,0.148438 0.1836,0.3125 0.32422,0.488282 0.0742,0.109375 0.17969,0.203125 0.26953,0.296875 l 0.0781,0.08203 c 0.24219,0.257812 0.53906,0.476562 0.89844,0.664062 0.16797,0.08203 0.34765,0.148438 0.5664,0.21875 0.20313,0.05469 0.42188,0.09375 0.58985,0.121094 0.15234,0.02734 0.32031,0.02734 0.53906,0.03906 0.0508,0 0.0898,0 0.14062,0 0.0391,0 0.0781,0 0.11719,0 0.12891,0 0.24219,-0.02734 0.33203,-0.03906 0.16797,-0.02734 0.33594,-0.06641 0.51563,-0.136718 0.17969,-0.05469 0.35937,-0.148438 0.52734,-0.230469 0.0781,-0.03906 0.16797,-0.08203 0.25781,-0.136719 0.0625,-0.03906 0.12891,-0.07813 0.17969,-0.121094 l 0.0391,-0.02734 c 0.14063,-0.105468 0.28125,-0.230468 0.46094,-0.40625 0.15625,-0.148437 0.26953,-0.285156 0.3711,-0.40625 0.14453,-0.164062 0.24609,-0.367187 0.34765,-0.542968 0.10547,-0.191406 0.17969,-0.394532 0.25781,-0.582032 0.0664,-0.164062 0.12891,-0.339843 0.16797,-0.503906 0.0508,-0.1875 0.0781,-0.390625 0.10157,-0.582031 0.0117,-0.164063 0.0273,-0.339844 0.0391,-0.542969 0,-0.214844 -0.0273,-0.433594 -0.0508,-0.609375 0,-0.136719 -0.0391,-0.285156 -0.0898,-0.460937 z m 0,0"
       fill-opacity="1"
       fill-rule="nonzero"
       id="path3177" />
  </g>
  <path
     style="fill:#000aff;fill-opacity:0.835294;stroke-width:0.168635"
     d="m 100.39231,18.327121 2.66411,3.657542 42.58822,-13.7634667 0.45639,-1.454469 z"
     id="path7710"
     sodipodi:nodetypes="ccccc" />
  <path
     style="fill:#85ccff;fill-opacity:1;stroke-width:0.183807"
     d="m 89.448523,21.593843 -1.61691,3.407101 8.28662,7.760621 6.467597,-10.032019 -2.02113,-2.271397 -4.648587,1.514267 z"
     id="path8942" />
  <path
     style="fill:#fafafa;fill-opacity:1;stroke-width:0.183807"
     d="m 85.204153,16.29391 -2.22324,4.732086 11.92464,-0.189283 5.457047,-1.324985 -1.414797,-1.514268 -3.84013,0.378565 z"
     id="path8944" />
  <path
     style="fill:#000aff;fill-opacity:1;stroke-width:0.183807"
     d="m 95.916113,34.086542 -13.74364,-1.51426 -11.520419,3.217818 7.276049,-7.760621 2.22324,-0.946412 2.62746,-4.164239 5.25493,-0.567847 -1.6169,3.028536 z"
     id="path9774" />
  <path
     style="fill:#0057ff;fill-opacity:1;stroke-width:0.183807"
     d="m 84.395703,17.240331 -5.65915,9.653453 -1.6169,0.75713 -6.871821,7.571339 -1.616907,-4.542803 4.042248,-8.328469 z"
     id="path10123" />
  <path
     style="fill:#0057ff;fill-opacity:1;stroke-width:0.183807"
     d="m 83.991483,34.08655 11.52042,1.514268 v 14.764104 l -1.41479,8.139186 -2.22324,5.867788 -1.21267,-2.271406 -15.76478,-15.521242 z"
     id="path10455" />
  <path
     style="fill:#85ccff;fill-opacity:1;stroke-width:0.183807"
     d="m 57.987838,63.997528 18.190125,40.695932 -0.40422,12.87127 -3.43592,8.70703 z"
     id="path12054" />
  <path
     style="fill:#0057ff;fill-opacity:1;stroke-width:0.183807"
     d="M 78.938673,100.52501 75.098533,88.410883 59.131639,64.371888 76.917543,104.1214 Z"
     id="path12056" />
  <path
     style="fill:#000aff;fill-opacity:1;stroke-width:0.183807"
     d="M 57.11051,64.371888 71.460508,126.45684 57.11051,103.36427 Z"
     id="path12886" />
  <path
     style="fill:#0057ff;fill-opacity:1;stroke-width:0.183807"
     d="m 56.233197,65.004239 -7.680279,19.117624 6.66971,17.792637 z"
     id="path12888" />
  <path
     style="fill:#000aff;fill-opacity:1;stroke-width:0.183807"
     d="M 49.228123,67.021858 48.015447,82.35382 55.493611,64.750461 Z"
     id="path13444" />
  <path
     style="fill:#000aff;fill-opacity:1;stroke-width:0.183807"
     d="m 72.806423,83.17124 1.41479,-36.153128 15.56267,15.33196 1.81901,3.217818 -10.10563,8.32847 z"
     id="path15039" />
  <path
     style="fill:#0057ff;fill-opacity:1;stroke-width:0.183807"
     d="M 71.416246,80.81195 59.015076,62.404854 50.357653,65.253567 72.820143,46.62735 Z"
     id="path15526" />
  <path
     style="fill:#85ccff;fill-opacity:1;stroke-width:0.183807"
     d="m 48.251793,65.472703 24.80235,-19.941021 9.82733,-12.052261 -11.699215,3.944381 -3.27578,-5.916571 -5.849608,7.01223 z"
     id="path16011" />
  <path
     style="fill:#0057ff;fill-opacity:1;stroke-width:0.183807"
     d="M 2.1568902,1.2670103 6.6025912,15.51059 28.597116,49.037797 47.549847,64.596173 25.789301,27.562859 Z"
     id="path16845" />
  <path
     style="fill:#000aff;fill-opacity:1;stroke-width:0.183807"
     d="M 4.9647052,3.4583293 46.613906,30.411572 48.017813,63.938779 26.491255,27.343723 Z"
     id="path17123" />
  <path
     style="fill:#0057ff;fill-opacity:1;stroke-width:0.183807"
     d="M 47.783826,30.411572 48.48578,61.966589 61.120929,37.423802 Z"
     id="path17332" />
  <path
     sodipodi:type="star"
     style="fill:#243038;fill-opacity:1;stroke-width:0.264583"
     id="path17835"
     inkscape:flatsided="true"
     sodipodi:sides="5"
     sodipodi:cx="127.1191"
     sodipodi:cy="61.277927"
     sodipodi:r1="2.3047893"
     sodipodi:r2="1.8646137"
     sodipodi:arg1="1.4288993"
     sodipodi:arg2="2.0572178"
     inkscape:rounded="0"
     inkscape:randomized="0"
     d="m 127.44505,63.559552 -2.39518,-1.26657 0.46443,-2.669342 2.68221,-0.383172 1.19327,2.432527 z"
     inkscape:transform-center-x="-0.02550832"
     inkscape:transform-center-y="0.028951909"
     transform="matrix(0.71786121,0,0,0.67229472,1.6586052,-19.3598)" />
  <text
     xml:space="preserve"
     transform="matrix(0.75000022,0,0,0.75000022,-11.663511,-22.620141)"
     id="text1003"
     style="font-style:normal;font-variant:normal;font-weight:normal;font-stretch:normal;font-size:18.6667px;font-family:sans-serif;-inkscape-font-specification:sans-serif;letter-spacing:1.97px;white-space:pre;shape-inside:url(#rect1005);shape-padding:0;display:inline;fill:#85ccff;fill-opacity:1"><tspan
       x="143.26172"
       y="159.4009"
       id="tspan26104"><tspan
         style="font-weight:500;font-family:Comfortaa;-inkscape-font-specification:'Comfortaa Medium'"
         id="tspan26102">MARKETING ANALYTICS</tspan></tspan></text>
  <text
     xml:space="preserve"
     style="font-style:normal;font-variant:normal;font-weight:600;font-size:12px;line-height:125%;font-family:'Comfortaa Light';text-align:start;letter-spacing:0px;word-spacing:0px;text-anchor:start;fill:#000000;fill-opacity:1;stroke:none;stroke-width:0.75"
     x="166.93018"
     y="111.80212"
     id="text1691"><tspan
       sodipodi:role="line"
       x="166.93018"
       y="111.80212"
       id="tspan1689"
       style="stroke-width:0.75"><tspan
         dx="0"
         dy="0"
         style="font-style:normal;font-variant:normal;font-weight:600;font-size:12px;font-family:'Comfortaa Light';fill:#000000;stroke-width:0.75"
         id="tspan1687"> </tspan></tspan></text>
</svg>
