<?xml version="1.0" encoding="UTF-8" standalone="no"?>
<!-- Created with Inkscape (http://www.inkscape.org/) -->

<svg
   version="1.1"
   id="svg569"
   width="873.33331"
   height="873.33331"
   viewBox="0 0 873.33331 873.33331"
   sodipodi:docname="face.svg"
   inkscape:version="1.2.2 (732a01da63, 2022-12-09)"
   xmlns:inkscape="http://www.inkscape.org/namespaces/inkscape"
   xmlns:sodipodi="http://sodipodi.sourceforge.net/DTD/sodipodi-0.dtd"
   xmlns="http://www.w3.org/2000/svg"
   xmlns:svg="http://www.w3.org/2000/svg">
  <defs
     id="defs573" />
  <sodipodi:namedview
     id="namedview571"
     pagecolor="#ffffff"
     bordercolor="#000000"
     borderopacity="0.25"
     inkscape:showpageshadow="2"
     inkscape:pageopacity="0.0"
     inkscape:pagecheckerboard="0"
     inkscape:deskcolor="#d1d1d1"
     showgrid="false"
     inkscape:zoom="0.75575672"
     inkscape:cx="436.64845"
     inkscape:cy="461.12722"
     inkscape:window-width="1920"
     inkscape:window-height="1001"
     inkscape:window-x="-9"
     inkscape:window-y="-9"
     inkscape:window-maximized="1"
     inkscape:current-layer="g575" />
  <g
     inkscape:groupmode="layer"
     inkscape:label="Image"
     id="g575">
    <path
       style="fill:#f0f8ff;fill-opacity:1;stroke-width:1.16777"
       d="m 305.64096,870.50511 179.16314,-1.25289 -1.25289,-409.69474 v -16.28755 c 0,0 0,-1.25289 2.50578,-6.26444 2.50579,-5.01157 157.86403,-2.50579 157.86403,-2.50579 L 657.7028,261.60101 494.82722,262.8539 c 0,0 2.50577,3.75866 -1.25289,-6.26445 -3.75866,-10.02311 -2.50578,-77.67912 -2.50578,-77.67912 0,0 1.25289,-25.05778 32.57512,-28.81644 31.32222,-3.75868 135.31202,-2.50579 135.31202,-2.50579 L 661.46147,4.7587383 H 452.22899 c 0,0 -116.51868,26.3106797 -132.80624,107.7484617 -16.28756,81.4378 -13.78179,151.59959 -13.78179,151.59959 l -87.70223,-2.50578 V 434.4997 l 92.7138,1.25289 z"
       id="path840" />
  </g>
</svg>
