<?xml version="1.0" encoding="UTF-8" standalone="no"?>
<!-- Created with Inkscape (http://www.inkscape.org/) -->

<svg
   width="205mm"
   height="190mm"
   viewBox="0 0 205 190"
   version="1.1"
   id="svg5"
   xml:space="preserve"
   inkscape:version="1.2.2 (732a01da63, 2022-12-09)"
   sodipodi:docname="new logo.svg"
   xmlns:inkscape="http://www.inkscape.org/namespaces/inkscape"
   xmlns:sodipodi="http://sodipodi.sourceforge.net/DTD/sodipodi-0.dtd"
   xmlns="http://www.w3.org/2000/svg"
   xmlns:svg="http://www.w3.org/2000/svg"><sodipodi:namedview
     id="namedview7"
     pagecolor="#ffffff"
     bordercolor="#000000"
     borderopacity="0.25"
     inkscape:showpageshadow="2"
     inkscape:pageopacity="0.0"
     inkscape:pagecheckerboard="0"
     inkscape:deskcolor="#d1d1d1"
     inkscape:document-units="mm"
     showgrid="false"
     inkscape:zoom="0.57398594"
     inkscape:cx="196.86893"
     inkscape:cy="493.91454"
     inkscape:window-width="1920"
     inkscape:window-height="1001"
     inkscape:window-x="-9"
     inkscape:window-y="-9"
     inkscape:window-maximized="1"
     inkscape:current-layer="layer1" /><defs
     id="defs2"><clipPath
       id="0641ef76b2"><path
         d="M 0,1.484375 H 82 V 60 H 0 Z m 0,0"
         clip-rule="nonzero"
         id="path2954" /></clipPath><clipPath
       id="a321d564d4"><path
         d="m 112,51 h 41.75 v 6 H 112 Z m 0,0"
         clip-rule="nonzero"
         id="path2957" /></clipPath><clipPath
       id="2bc0f2b05b"><path
         d="m 56,84 h 45 v 63.73437 H 56 Z m 0,0"
         clip-rule="nonzero"
         id="path2960" /></clipPath><clipPath
       id="74c290616a"><path
         d="m 56,84 h 52 v 63.73437 H 56 Z m 0,0"
         clip-rule="nonzero"
         id="path2963" /></clipPath></defs><g
     inkscape:label="Layer 1"
     inkscape:groupmode="layer"
     id="layer1"><path
       style="fill:#000aff;fill-opacity:0.835294;stroke-width:0.242743"
       d="m 139.12622,27.221415 3.71118,5.440391 59.32654,-20.472373 0.63575,-2.163439 z"
       id="path7710"
       sodipodi:nodetypes="ccccc" /><path
       style="fill:#85ccff;fill-opacity:1;stroke-width:0.264583"
       d="m 123.88122,32.080486 -2.25239,5.067869 11.54348,11.543477 9.00954,-14.922055 -2.81548,-3.378578 -6.47561,2.252384 z"
       id="path8942" /><path
       style="fill:#fafafa;fill-opacity:1;stroke-width:0.264583"
       d="m 117.9687,24.197137 -3.09703,7.038705 16.61135,-0.281549 7.6018,-1.970836 -1.97084,-2.252387 -5.34941,0.563096 z"
       id="path8944" /><path
       style="fill:#000aff;fill-opacity:1;stroke-width:0.264583"
       d="m 132.89076,50.662663 -19.14528,-2.25238 -16.04825,4.78632 10.13574,-11.543476 3.09703,-1.407742 3.66013,-6.19406 7.32025,-0.844645 -2.25238,4.504772 z"
       id="path9774" /><path
       style="fill:#0057ff;fill-opacity:1;stroke-width:0.264583"
       d="m 116.84251,25.604878 -7.88335,14.358959 -2.25238,1.126193 -9.572643,11.261929 -2.252385,-6.757157 5.630958,-12.388122 z"
       id="path10123" /><path
       style="fill:#0057ff;fill-opacity:1;stroke-width:0.264583"
       d="m 116.27942,50.662668 16.04825,2.252387 v 21.960766 l -1.97084,12.10657 -3.09703,8.728 -1.68929,-3.37858 -21.96076,-23.086959 z"
       id="path10455" /><path
       style="fill:#85ccff;fill-opacity:1;stroke-width:0.264583"
       d="m 80.055638,95.153541 25.339332,60.532869 -0.56309,19.14528 -4.78632,12.95122 z"
       id="path12054" /><path
       style="fill:#0057ff;fill-opacity:1;stroke-width:0.264583"
       d="M 109.24071,149.48609 103.8913,131.46701 81.648984,95.710381 106.42523,154.83551 Z"
       id="path12056" /><path
       style="fill:#000aff;fill-opacity:1;stroke-width:0.264583"
       d="M 78.833503,95.710381 98.823427,188.0582 78.833503,153.70932 Z"
       id="path12886" /><path
       style="fill:#0057ff;fill-opacity:1;stroke-width:0.264583"
       d="m 77.611374,96.650971 -10.698832,28.436369 9.291092,26.46553 z"
       id="path12888" /><path
       style="fill:#000aff;fill-opacity:1;stroke-width:0.264583"
       d="M 67.853123,99.652061 66.163832,122.45747 76.581115,96.273481 Z"
       id="path13444" /><path
       style="fill:#000aff;fill-opacity:1;stroke-width:0.264583"
       d="m 100.69833,123.67334 1.97084,-53.775709 21.67922,22.80541 2.53393,4.78632 -14.07741,12.388119 z"
       id="path15039" /><path
       style="fill:#0057ff;fill-opacity:1;stroke-width:0.264583"
       d="M 98.761768,120.16403 81.486606,92.784531 69.426589,97.021831 100.71744,69.316392 Z"
       id="path15526" /><path
       style="fill:#85ccff;fill-opacity:1;stroke-width:0.264583"
       d="M 66.49307,97.347781 101.0434,67.686656 114.73315,49.759603 98.435819,55.626638 93.872571,46.826083 85.723909,57.256371 Z"
       id="path16011" /><path
       style="fill:#0057ff;fill-opacity:1;stroke-width:0.264583"
       d="M 2.281625,1.845478 8.4746072,23.031996 39.113571,72.901801 65.515233,96.043991 35.202214,40.959048 Z"
       id="path16845" /><path
       style="fill:#000aff;fill-opacity:1;stroke-width:0.264583"
       d="M 6.192982,5.104943 64.211445,45.196352 66.167124,95.066151 36.180053,40.633102 Z"
       id="path17123" /><path
       style="fill:#0057ff;fill-opacity:1;stroke-width:0.264583"
       d="M 65.841178,45.196353 66.819017,92.132641 84.420124,55.626638 Z"
       id="path17332" /><path
       sodipodi:type="star"
       style="fill:#243038;fill-opacity:1;stroke-width:0.264583"
       id="path17835"
       inkscape:flatsided="true"
       sodipodi:sides="5"
       sodipodi:cx="127.1191"
       sodipodi:cy="61.277927"
       sodipodi:r1="2.3047893"
       sodipodi:r2="1.8646137"
       sodipodi:arg1="1.4288993"
       sodipodi:arg2="2.0572178"
       inkscape:rounded="0"
       inkscape:randomized="0"
       d="m 127.44505,63.559552 -2.39518,-1.26657 0.46443,-2.669342 2.68221,-0.383172 1.19327,2.432527 z"
       inkscape:transform-center-x="-0.10072138"
       inkscape:transform-center-y="0.12208178"
       transform="translate(1.5875,-28.835719)" /></g></svg>
