<?xml version="1.0" encoding="UTF-8" standalone="no"?>
<!-- Created with Inkscape (http://www.inkscape.org/) -->

<svg
   version="1.1"
   id="svg1765"
   width="873.33331"
   height="873.33331"
   viewBox="0 0 873.33331 873.33331"
   sodipodi:docname="whats2.svg"
   inkscape:version="1.2.2 (732a01da63, 2022-12-09)"
   xmlns:inkscape="http://www.inkscape.org/namespaces/inkscape"
   xmlns:sodipodi="http://sodipodi.sourceforge.net/DTD/sodipodi-0.dtd"
   xmlns="http://www.w3.org/2000/svg"
   xmlns:svg="http://www.w3.org/2000/svg">
  <defs
     id="defs1769">
    <clipPath
       clipPathUnits="userSpaceOnUse"
       id="clipPath2144">
      <path
         id="path2146"
         style="fill:#ff0000;fill-opacity:1;fill-rule:nonzero;stroke:none"
         d="M 0,0 V 873.33398 H 873.33398 V 0 Z m 212.74023,336.08984 c 2.30635,0.0639 4.8889,1.93318 6.35352,6.09766 1.00157,2.84785 1.80362,5.75879 2.89648,8.57422 1.17042,3.19472 2.37483,6.3767 3.5625,9.56445 1.12676,2.99812 2.18854,6.02344 3.52539,8.9375 1.03826,2.36098 2.17647,4.68235 3.4043,6.94922 1.78419,3.2775 3.41343,6.67638 4.29688,10.32031 2.56023,10.56053 -7.88407,12.87408 -10.71485,2.38282 -0.70258,-2.60388 -1.8835,-5.06227 -3.19726,-7.40821 -1.3829,-2.54121 -2.64557,-5.15404 -3.82422,-7.79687 -1.42428,-3.10508 -2.5605,-6.32607 -3.76367,-9.51953 -1.19722,-3.2173 -2.41314,-6.42725 -3.59571,-9.65039 -1.12417,-2.85177 -1.9185,-5.81396 -2.9414,-8.70118 -2.15463,-6.08152 0.6273,-9.84337 3.99804,-9.75 z m -59.46289,26.75782 c 3.30678,0.0217 6.07213,3.94701 4.01563,10.0625 -1.2516,3.72184 -3.35178,7.05773 -5.22656,10.48046 -1.79129,3.54693 -3.91391,6.88795 -6.06055,10.22461 -1.73103,2.68877 -3.78896,5.15365 -5.79883,7.63672 -1.36992,2.15172 -2.87183,4.22504 -4.16797,6.42188 -1.59152,2.70348 -3.21522,5.38572 -4.76562,8.11328 -1.97478,3.2602 -3.72089,6.64775 -5.51172,10.00977 -1.56863,3.07852 -3.15761,6.14285 -4.8418,9.1582 -0.58913,1.29971 -1.10481,2.63014 -1.68164,3.93554 -0.12249,0.32019 -0.2447,0.64074 -0.36719,0.96094 -1.10454,2.88734 -2.73231,4.51917 -4.40234,5.29883 -5.8686,7.3787 -13.98921,1.57145 -8.37305,-7.12891 1.44177,-2.23341 2.81448,-4.50844 4.27344,-6.73046 -0.29544,-0.18541 -0.5877,-0.37769 -0.89062,-0.54688 0.0969,-0.45986 0.21056,-0.9151 0.32617,-1.36914 -0.61755,-0.32684 -1.21854,-0.69873 -1.84571,-0.99805 -0.56169,-0.91569 -1.27379,-1.75584 -1.68554,-2.74804 -1.05302,-2.53748 0.21084,-5.6719 0.92773,-8.08789 0.93162,-2.72941 1.55252,-5.53378 2.27735,-8.32032 1.1251,-3.37619 2.5433,-6.64735 4.15429,-9.82031 2.05539,-4.08528 4.43719,-7.99031 6.77539,-11.91797 2.40459,-3.82193 4.7888,-7.66147 7.45118,-11.3125 2.20076,-3.01814 4.67957,-4.22279 6.72656,-4.14648 2.01538,0.0751 3.56306,1.41923 4.0625,3.46875 1.16591,-0.76639 2.34927,-1.13347 3.43164,-1.14258 0.7932,-0.007 1.48717,0.26371 2.12695,0.60937 1.10985,-1.97423 2.17548,-3.9718 2.89453,-6.12695 1.39717,-4.18752 3.91333,-5.99922 6.17578,-5.98437 z m 297.19141,230.22656 c 1.66512,-0.052 3.27356,0.30494 4.89453,0.6914 5.13711,1.22491 7.05323,4.58078 6.49024,7.3125 1.48713,0.78537 2.44329,1.74103 3.16601,2.72852 0.72005,0.15642 1.44623,0.29194 2.18164,0.40039 2.71363,0.34966 5.45353,0.4215 8.18555,0.5 1.93635,0.0434 0.91163,-0.007 3.07031,0.16797 10.83086,0.87949 9.84966,12.01714 -0.96289,10.93555 -1.46447,-0.14654 -0.65868,-0.0929 -2.42578,-0.13282 -3.17692,-0.0921 -6.36096,-0.18767 -9.51367,-0.61914 -3.15703,-0.48845 -6.26325,-1.20941 -9.13477,-2.66211 -2.35768,-1.07893 -4.72219,-2.22188 -7.20703,-2.96679 -1.82379,-0.37765 -3.52935,-0.75876 -5.36328,-0.12696 -1.81975,0.74376 -3.42461,1.8916 -4.91797,3.16016 -2.80528,2.45623 -5.76081,4.74046 -8.76367,6.94922 -0.44638,0.31099 -0.89852,0.61464 -1.34766,0.92187 -1.82391,2.08463 -3.56903,4.21132 -5.1875,6.47461 -2.03473,3.02229 -4.14023,5.99502 -6.16211,9.02539 -1.60781,2.42016 -3.18095,4.87008 -4.67578,7.35938 -1.44985,2.26499 -3.03642,4.41542 -4.73828,6.49609 -2.00586,2.55264 -4.1945,4.99118 -6.72461,7.03711 -0.78351,0.65509 -1.59111,1.27456 -2.41211,1.87305 -1.26982,2.18716 -2.60617,4.35282 -4.65234,5.9043 -2.8477,1.95414 -5.91115,3.0666 -9.41797,2.60937 -2.9032,-0.21662 -5.80202,-0.53955 -8.63672,-1.22851 -3.17469,-0.79747 -6.26404,-1.84528 -9.36719,-2.87891 -10.3096,-3.43405 -6.85473,-13.80017 3.47071,-10.41406 2.83841,0.93083 5.64799,1.92589 8.55078,2.64258 1.55857,0.37099 3.15668,0.49097 4.74804,0.65039 0.77425,-0.8945 1.81009,-1.76194 3.15625,-2.54688 1.29038,-0.7524 2.57433,-1.50673 3.82227,-2.31445 0.34101,-0.67591 0.67522,-1.35529 1.03906,-2.01953 1.95767,-3.5739 4.5413,-5.0566 6.72852,-5.01368 0.0573,10e-4 0.0976,0.0476 0.15429,0.0508 0.29683,-0.36099 0.59372,-0.72172 0.87696,-1.0918 1.4933,-1.815 2.88807,-3.67645 4.14844,-5.66016 1.5371,-2.53827 3.14218,-5.04523 4.78125,-7.52148 0.27699,-0.41562 0.56394,-0.8246 0.84375,-1.23828 -1.51732,-1.03804 -2.38067,-2.76591 -1.82813,-4.86133 -6.13517,-0.43109 -7.05294,-7.8616 1.21875,-11.16211 2.79757,-1.11626 5.59644,-2.21369 8.36719,-3.39844 2.98897,-1.47818 6.04263,-2.8375 8.99023,-4.39844 1.53843,-0.72584 3.05158,-1.50345 4.57032,-2.26953 0.61815,-0.40229 1.22744,-0.69831 1.82226,-0.90625 0.0358,-0.0176 0.0716,-0.0352 0.10742,-0.0527 0.55321,-0.50188 1.1047,-1.00496 1.66602,-1.49805 2.242,-2.01739 4.74405,-3.66837 7.46289,-4.95898 2.60339,-1.14314 5.40425,-1.59918 8.20898,-1.90039 0.24044,-0.0252 0.47893,-0.0414 0.7168,-0.0488 z m 112.00586,74.57422 c 3.63604,-0.1083 6.3674,4.06726 3.375,10.16406 -0.13647,0.27805 -0.12682,0.24835 -0.20117,0.40039 1.02948,1.78076 1.22555,4.50163 -0.21094,7.86523 -2.11904,4.96186 -4.07547,9.98636 -6.19336,14.94922 -1.86263,4.27865 -3.47325,8.66502 -5.38867,12.91993 -1.94732,3.93773 -4.2722,7.68247 -6.69922,11.33984 -2.15726,3.23208 -4.51755,6.33862 -7.07813,9.26172 -1.79128,2.28355 -3.88144,4.26013 -6.14257,6.0664 -2.5119,1.66116 -4.92731,3.46539 -7.43946,5.12696 -2.03758,1.44804 -4.28412,2.60719 -6.2207,4.19336 -2.33168,1.88321 -4.78697,3.60605 -7.21875,5.35742 -3.16455,1.93311 -6.48208,3.6275 -9.92187,5.01172 -1.73406,0.61085 -3.51644,1.05129 -5.27539,1.56836 -1.18129,0.65369 -4.43068,2.35716 -4.73829,1.91797 -5.83256,-8.32751 -7.48663,-8.31509 -2.45507,-11.04297 0.81187,-0.32449 1.6327,-0.61109 2.45898,-0.88477 2.34793,-1.78357 4.40873,-3.90204 6.50391,-5.9668 2.19803,-2.38502 4.57167,-4.59394 7.03906,-6.69531 2.22971,-2.25033 4.61586,-4.31959 6.98437,-6.41992 2.14003,-1.81956 4.43895,-3.43172 6.66797,-5.13672 1.67283,-1.19504 3.15318,-2.62029 4.46289,-4.20117 1.52445,-1.74245 2.81169,-3.66007 4.06836,-5.59766 1.55053,-2.20394 3.03956,-4.44782 4.58399,-6.6582 1.82925,-2.82086 3.82345,-5.53028 5.67187,-8.33789 1.99573,-2.69628 3.65602,-5.60973 5.25586,-8.55078 1.94348,-3.40533 3.79005,-6.8629 5.75586,-10.25586 1.49317,-2.9436 3.33018,-5.70254 4.70117,-8.70703 0.84688,-1.67685 0.45698,-0.89153 1.17383,-2.35547 1.79208,-3.65974 4.29884,-5.26705 6.48047,-5.33203 z" />
    </clipPath>
    <clipPath
       clipPathUnits="userSpaceOnUse"
       id="clipPath2154">
      <path
         id="path2156"
         style="fill:#ff0000;fill-opacity:1;fill-rule:nonzero;stroke:none"
         d="m 119.44141,367.625 v 21.49023 c 0.3242,-0.5431 0.64327,-1.08938 0.96679,-1.63281 2.40459,-3.82193 4.7888,-7.66147 7.45118,-11.3125 2.20076,-3.01814 4.67957,-4.22279 6.72656,-4.14648 2.01487,0.0751 3.58998,1.40448 4.08984,3.45312 1.15713,-0.75418 2.33031,-1.11791 3.4043,-1.12695 0.79511,-0.007 1.5154,0.2113 2.15625,0.55859 1.0993,-1.95769 2.15239,-3.93963 2.86523,-6.07617 0.1443,-0.4325 0.30795,-0.82461 0.47461,-1.20703 z m 38.45703,0 c 0.22095,1.48245 0.0755,3.26028 -0.60547,5.28516 -1.2516,3.72184 -3.35178,7.05773 -5.22656,10.48046 -1.79129,3.54693 -3.91391,6.88795 -6.06055,10.22461 -1.73103,2.68877 -3.78896,5.15365 -5.79883,7.63672 -1.36992,2.15172 -2.87183,4.22504 -4.16797,6.42188 -1.59152,2.70348 -3.21522,5.38572 -4.76562,8.11328 -1.97478,3.2602 -3.72089,6.64775 -5.51172,10.00977 -1.42317,2.79304 -2.85961,5.576 -4.3711,8.32031 -0.62428,1.45569 -1.2958,2.89197 -1.94921,4.33593 v 321.93555 h 371.21093 c -3.67938,-4.93173 -4.195,-5.35886 0.0137,-7.64062 0.81187,-0.32449 1.6327,-0.61109 2.45898,-0.88477 2.34793,-1.78357 4.40873,-3.90204 6.50391,-5.9668 2.19803,-2.38502 4.57167,-4.59394 7.03906,-6.69531 2.22971,-2.25033 4.61586,-4.31959 6.98437,-6.41992 2.14003,-1.81956 4.43895,-3.43172 6.66797,-5.13672 1.67283,-1.19504 3.15318,-2.62029 4.46289,-4.20117 1.52445,-1.74245 2.81169,-3.66007 4.06836,-5.59766 1.55053,-2.20394 3.03956,-4.44782 4.58399,-6.6582 1.82925,-2.82086 3.82345,-5.53028 5.67187,-8.33789 1.99573,-2.69628 3.65602,-5.60973 5.25586,-8.55078 0.75283,-1.31909 1.48635,-2.64859 2.22266,-3.97656 V 367.625 H 228.36719 c 0.23155,0.54814 0.46263,1.09732 0.71093,1.63867 1.03826,2.36098 2.17647,4.68235 3.4043,6.94922 1.78419,3.2775 3.41343,6.67638 4.29688,10.32031 2.56023,10.56053 -7.88407,12.87408 -10.71485,2.38282 -0.70258,-2.60388 -1.8835,-5.06227 -3.19726,-7.40821 -1.3829,-2.54121 -2.64557,-5.15404 -3.82422,-7.79687 -0.9141,-1.99283 -1.70397,-4.03555 -2.47461,-6.08594 z m 292.57031,225.44922 c 1.66512,-0.052 3.27356,0.30494 4.89453,0.6914 5.13711,1.22491 7.05323,4.58078 6.49024,7.3125 1.48713,0.78537 2.44329,1.74103 3.16601,2.72852 0.72005,0.15642 1.44623,0.29194 2.18164,0.40039 2.71363,0.34966 5.45353,0.4215 8.18555,0.5 1.93635,0.0434 0.91163,-0.007 3.07031,0.16797 10.83086,0.87949 9.84966,12.01714 -0.96289,10.93555 -1.46447,-0.14654 -0.65868,-0.0929 -2.42578,-0.13282 -3.17692,-0.0921 -6.36096,-0.18767 -9.51367,-0.61914 -3.15703,-0.48845 -6.26325,-1.20941 -9.13477,-2.66211 -2.35768,-1.07893 -4.72219,-2.22188 -7.20703,-2.96679 -1.82379,-0.37765 -3.52935,-0.75876 -5.36328,-0.12696 -1.81975,0.74376 -3.42461,1.8916 -4.91797,3.16016 -2.80528,2.45623 -5.76081,4.74046 -8.76367,6.94922 -0.48519,0.33803 -0.97638,0.66842 -1.46485,1.00195 -1.78963,2.05302 -3.47845,4.16845 -5.07031,6.39453 -2.03473,3.02229 -4.14023,5.99502 -6.16211,9.02539 -1.60781,2.42016 -3.18095,4.87008 -4.67578,7.35938 -1.44985,2.26499 -3.03642,4.41542 -4.73828,6.49609 -2.00586,2.55264 -4.1945,4.99118 -6.72461,7.03711 -0.78351,0.65509 -1.59111,1.27456 -2.41211,1.87305 -1.26982,2.18716 -2.60617,4.35282 -4.65234,5.9043 -2.8477,1.95414 -5.91115,3.0666 -9.41797,2.60937 -2.9032,-0.21662 -5.80202,-0.53955 -8.63672,-1.22851 -3.17469,-0.79747 -6.26404,-1.84528 -9.36719,-2.87891 -10.3096,-3.43405 -6.85473,-13.80017 3.47071,-10.41406 2.83841,0.93083 5.64799,1.92589 8.55078,2.64258 1.53993,0.36655 3.10751,0.56941 4.67969,0.72851 0.78057,-0.92208 1.83929,-1.81723 3.2246,-2.625 1.29038,-0.7524 2.57433,-1.50673 3.82227,-2.31445 0.34101,-0.67591 0.67522,-1.35529 1.03906,-2.01953 1.95767,-3.5739 4.5413,-5.0566 6.72852,-5.01368 0.06,10e-4 0.11254,0.0258 0.17187,0.0293 0.29067,-0.35403 0.58176,-0.70756 0.85938,-1.07031 1.4933,-1.815 2.88807,-3.67645 4.14844,-5.66016 1.5371,-2.53827 3.14218,-5.04523 4.78125,-7.52148 0.25206,-0.3782 0.51316,-0.75038 0.76757,-1.12696 -1.53824,-1.03377 -2.30817,-2.86327 -1.75195,-4.97265 -6.13517,-0.43109 -7.05294,-7.8616 1.21875,-11.16211 2.79757,-1.11626 5.59644,-2.21369 8.36719,-3.39844 2.98897,-1.47818 6.04263,-2.8375 8.99023,-4.39844 1.53843,-0.72584 3.05158,-1.50345 4.57032,-2.26953 0.61815,-0.40229 1.22744,-0.69831 1.82226,-0.90625 0.0358,-0.0176 0.0716,-0.0352 0.10742,-0.0527 0.55321,-0.50188 1.1047,-1.00496 1.66602,-1.49805 2.242,-2.01739 4.74405,-3.66837 7.46289,-4.95898 2.60339,-1.14314 5.40425,-1.59918 8.20898,-1.90039 0.24044,-0.0252 0.47893,-0.0414 0.7168,-0.0488 z m 96.11719,133.03906 c -2.00353,2.93379 -4.1676,5.76401 -6.50782,8.43555 -1.79128,2.28355 -3.88144,4.26013 -6.14257,6.0664 -2.5119,1.66116 -4.92731,3.46539 -7.43946,5.12696 -2.03758,1.44804 -4.28412,2.60719 -6.2207,4.19336 -2.33168,1.88321 -4.78697,3.60605 -7.21875,5.35742 -3.16455,1.93311 -6.48208,3.6275 -9.92187,5.01172 -0.0889,0.0313 -0.18041,0.0535 -0.26954,0.084 h 43.72071 z" />
    </clipPath>
  </defs>
  <sodipodi:namedview
     id="namedview1767"
     pagecolor="#ffffff"
     bordercolor="#000000"
     borderopacity="0.25"
     inkscape:showpageshadow="2"
     inkscape:pageopacity="0.0"
     inkscape:pagecheckerboard="0"
     inkscape:deskcolor="#d1d1d1"
     showgrid="false"
     inkscape:zoom="0.91100744"
     inkscape:cx="514.81467"
     inkscape:cy="471.45608"
     inkscape:window-width="1920"
     inkscape:window-height="1001"
     inkscape:window-x="-9"
     inkscape:window-y="-9"
     inkscape:window-maximized="1"
     inkscape:current-layer="g1771" />
  <g
     inkscape:groupmode="layer"
     inkscape:label="Image"
     id="g1771">
    <path
       id="path1775"
       style="fill:#f0f8ff"
       d="m 431.95123,3.1873979 c -7.89154,0.005 -12.26563,0.27539 -12.26563,0.27539 0,0 -194.76323,-6.9158908 -335.361318,194.7617121 -140.59806,201.67759 -6.91602,448.30273 -6.91602,448.30273 L 5.9571225,865.49012 237.59771,794.03895 l 55.31836,25.35352 c 0,0 74.90968,41.48832 238.55664,18.43945 163.64697,-23.04887 268.51954,-180.9336 268.51954,-180.9336 0,0 139.44591,-191.30544 19.59179,-431.01367 C 714.71169,16.139948 487.19198,3.1558879 431.95123,3.1873979 Z M 446.6856,60.169817 c 46.19677,-0.30193 77.15235,7.48828 77.15235,7.48828 0,0 200.12982,39.435573 262.96094,216.894523 62.83111,177.45896 -27.92579,324.76172 -27.92579,324.76172 0,0 -86.10247,134.54357 -214.09179,160.06055 -127.98931,25.51697 -191.98438,0 -191.98438,0 0,0 -9.76575,-3.66193 -22.93945,-8.75782 -34.23766,-15.51976 -81.36167,-37.91278 -82.19141,-39.57226 -0.64563,-1.29125 -12.0353,2.7842 -22.97656,6.98828 -38.93374,12.01637 -115.07226,36.70313 -115.07226,36.70312 l 46.54296,-133.38476 c 0,0 -153.5889877,-180.9389 -12.80078,-402.47266 C 233.5519,86.958754 364.33486,60.708047 446.6856,60.169817 Z" />
    <path
       style="fill:#f0f8ff;fill-opacity:1"
       d="m 221.73255,378.70163 c 0,0 32.93057,72.44727 37.32132,86.71718 4.39074,14.26992 -4.39075,21.95372 -4.39075,21.95372 l -27.44214,36.22364 c 0,0 -1.09769,7.6838 0,14.26991 1.09768,6.58612 49.39586,63.66578 49.39586,63.66578 0,0 74.64264,66.95884 97.69404,62.5681 23.05141,-4.39075 17.56298,-2.19537 17.56298,-2.19537 0,0 35.12595,-29.63752 41.71206,-48.29818 6.58612,-18.66066 97.69404,36.22363 108.6709,46.1028 10.97686,9.87918 -1.09768,37.32132 -12.07454,59.27504 -10.97686,21.95372 -66.95884,46.10281 -99.88942,40.61438 -32.93057,-5.48843 -66.95883,-17.56298 -102.08478,-32.93058 -35.12595,-15.3676 -102.08479,-70.25189 -108.6709,-80.13107 -6.58612,-9.87917 -59.27504,-70.25189 -69.15421,-87.81487 -9.87918,-17.56297 -39.51669,-68.05652 -28.53984,-111.96396 10.97686,-43.90743 5.48843,-36.22363 19.75835,-50.49355 14.26992,-14.26991 27.44215,-24.14909 41.71206,-26.34446 14.26992,-2.19537 20.85603,-3.29305 30.73521,-1.09768 9.87917,2.19537 7.6838,9.87917 7.6838,9.87917 z"
       id="path1870"
       clip-path="url(#clipPath2154)"
       transform="translate(119.64776,-136.11305)" />
  </g>
</svg>
